<svg width="490" height="53" viewBox="0 0 490 53" fill="none" xmlns="http://www.w3.org/2000/svg">
<g clip-path="url(#clip0_329_1145)">
<rect width="56" height="55" transform="translate(434 -2)" fill="#A9E5A4"/>
<path d="M461.793 11C456.386 11 452 15.4023 452 20.8298C452 28.2021 461.793 39.0851 461.793 39.0851C461.793 39.0851 471.587 28.2021 471.587 20.8298C471.587 15.4023 467.201 11 461.793 11ZM461.793 24.3404C459.863 24.3404 458.296 22.7677 458.296 20.8298C458.296 18.8919 459.863 17.3191 461.793 17.3191C463.724 17.3191 465.291 18.8919 465.291 20.8298C465.291 22.7677 463.724 24.3404 461.793 24.3404Z" fill="black"/>
</g>
<rect x="0.75" y="0.75" width="488.5" height="51.5" rx="16.25" stroke="#BBBBBB" stroke-width="1.5"/>
<defs>
<clipPath id="clip0_329_1145">
<rect width="490" height="53" rx="17" fill="white"/>
</clipPath>
</defs>
</svg>
