<svg width="490" height="53" viewBox="0 0 490 53" fill="none" xmlns="http://www.w3.org/2000/svg">
<g clip-path="url(#clip0_329_1153)">
<rect width="56" height="55" transform="translate(434 -2)" fill="#A9E5A4"/>
<g clip-path="url(#clip1_329_1153)">
<path d="M450 21.5V18.5C450 18.1022 450.181 17.7206 450.502 17.4393C450.824 17.158 451.26 17 451.714 17H453.429V15.5C453.429 15.1022 453.609 14.7206 453.931 14.4393C454.252 14.158 454.688 14 455.143 14C455.598 14 456.034 14.158 456.355 14.4393C456.677 14.7206 456.857 15.1022 456.857 15.5V17H467.143V15.5C467.143 15.1022 467.323 14.7206 467.645 14.4393C467.966 14.158 468.402 14 468.857 14C469.312 14 469.748 14.158 470.069 14.4393C470.391 14.7206 470.571 15.1022 470.571 15.5V17H472.286C472.74 17 473.176 17.158 473.498 17.4393C473.819 17.7206 474 18.1022 474 18.5V21.5H450ZM450 23V36.5C450 36.8978 450.181 37.2794 450.502 37.5607C450.824 37.842 451.26 38 451.714 38H472.286C472.74 38 473.176 37.842 473.498 37.5607C473.819 37.2794 474 36.8978 474 36.5V23H450Z" fill="black"/>
</g>
</g>
<rect x="0.75" y="0.75" width="488.5" height="51.5" rx="16.25" stroke="#BBBBBB" stroke-width="1.5"/>
<defs>
<clipPath id="clip0_329_1153">
<rect width="490" height="53" rx="17" fill="white"/>
</clipPath>
<clipPath id="clip1_329_1153">
<rect width="24" height="24" fill="white" transform="translate(450 14)"/>
</clipPath>
</defs>
</svg>
